<svg id="レイヤー_1" xmlns="http://www.w3.org/2000/svg" preserveAspectRatio="meet" viewBox="0 0 339.4 47.2"><style>.st0{fill:#FFFFFF;}</style><path class="st0" d="M0 .3h20.7c5.3 0 9.4 1.5 12.1 4.1 2 2 3.1 4.5 3.1 7.6v.1c0 5.5-3.2 8.5-6.6 10.3 5.4 1.8 9.2 4.9 9.2 11.2v.1c0 8.2-6.8 12.7-17.1 12.7H0V.3zm27.8 13.1c0-3.6-2.9-5.9-8.1-5.9H8v12.3h11.1c5.2 0 8.7-2 8.7-6.3v-.1zm-7 13.2H8v12.7h13.4c5.5 0 8.9-2.2 8.9-6.3v-.1c0-4-3.1-6.3-9.5-6.3zM63.3 0h7.5l20.3 46.5h-8.6l-4.7-11.1H56l-4.7 11.1H43L63.3 0zm11.6 28.1l-8-18.5L59 28.1h15.9zM99 .3h8.1v38.8h24.3v7.4H99V.3zM139.8.3h8.6l14 21.8 14-21.8h8.6v46.1h-8.1v-33l-14.6 21.8h-.3l-14.4-21.6v33h-8V.3zM196.3 26.9V.3h8.1v26.2c0 8.6 4.4 13.1 11.7 13.1 7.2 0 11.6-4.3 11.6-12.8V.3h8.1v26.2c0 13.8-7.8 20.7-19.8 20.7-12.1 0-19.7-6.9-19.7-20.3zM246.9.3h17.2c14.5 0 24.5 10 24.5 22.9v.1c0 13-10 23.1-24.5 23.1h-17.2V.3zm8.1 7.4v31.4h9.1c9.7 0 16-6.5 16-15.6v-.1c0-9-6.3-15.7-16-15.7H255zM311.6 0h7.5l20.3 46.5h-8.6l-4.7-11.1h-21.8l-4.7 11.1h-8.3L311.6 0zm11.6 28.1l-8-18.5-7.9 18.5h15.9z"/></svg>